<?xml version="1.0" encoding="UTF-8"?>
<svg id="Layer_2" data-name="Layer 2" xmlns="http://www.w3.org/2000/svg" viewBox="0 0 683.2 1111.86">
  <defs>
    <style>
      .cls-1 {
        fill: #799c0e;
      }

      .cls-2 {
        fill: #915eff;
      }

      .cls-3 {
        fill: #f1f1f1;
      }
    </style>
  </defs>
  <g id="Layer_1-2" data-name="Layer 1">
    <g>
      <path class="cls-3" d="m275.81,88.03c3.38,7.49,6.94,14.91,10.06,22.51,1.73,4.21,2.73,8.72,4.07,13.1C218.38,72.31,128.21,48.87,41.99,38.66c-2.68-.33-5.36-.65-8.03-.98-2.77-.4-5.53-.79-8.3-1.19,29.42-15.37,62.61-19.45,95.2-22.99,8.4,0,16.79,0,25.19,0,25.84,1.84,51.66,7.58,74.44,20.28,24.35,13.57,38.41,33.08,55.32,54.25Z"/>
      <g>
        <path class="cls-3" d="m364.77,53.64c-.96-.39-2.59-.95-4.44-1.44,1.85.49,3.48,1.06,4.44,1.44Z"/>
        <path class="cls-3" d="m345.78,69.78c-.28.02-.55.08-.81.18.26-.1.54-.16.81-.18Z"/>
        <path class="cls-3" d="m342.09,23.63c-8.35-7.87-16.7-15.74-25.08-23.63-17.17,20.53-32.94,55.04-41.21,88.03,3.38,7.49,6.94,14.91,10.06,22.51,1.73,4.21,2.73,8.72,4.07,13.1-6.07,3.88-12.16,7.72-18.2,11.66-1.89,1.23-3.62,2.69-5.42,4.04-.49,6.75-.98,13.5-1.47,20.26-.01,9.06-.03,18.12-.04,27.18.1,19.37,4.9,37.78,11.37,55.86,1.66,1.38,3.33,3.38,4.94-.05.89-4.99,1.78-9.98,2.67-14.97,1.25-25.71,11.67-55.66,20.95-79.61,9.7-25.04,23.72-46.99,38.22-69.43,1.95-2.32,3.89-4.63,5.84-6.95,2.77-3.21,5.54-6.42,8.31-9.64,2.56-2.79,5.12-5.57,7.68-8.36-.96-.39-2.59-.95-4.44-1.44,1.85.49,3.48,1.05,4.44,1.44.72-.72,1.44-1.44,2.16-2.15,4.92-1.92-21.09-24.52-24.84-27.85Zm2.87,46.32c.26-.1.54-.16.81-.18-.28.02-.55.08-.81.18Z"/>
      </g>
      <path class="cls-2" d="m41.99,38.66c86.23,10.21,176.39,33.65,247.95,84.97-6.07,3.88-12.17,7.72-18.2,11.66-1.89,1.23-3.62,2.69-5.42,4.04-1.94.5-4.04.68-5.81,1.54-19.69,9.6-40.51,15.72-62.22,17.57-16.19,1.38-32.44.04-48.34-4.66-42.25-12.47-73.36-39.88-99.51-73.79-9.36-12.14-17.36-25.34-25.93-38.09-1.37-2.04-3.17-4.45,1.15-5.41,2.77.4,5.53.79,8.3,1.19.39,4.82,2.03,6.38,6.07,5.94-.74-1.08-1.51-2.21-2.28-3.34,1.42-.54,2.83-1.08,4.25-1.62Zm.38,22.82c.86-1.58,1.71-2.98,2.41-4.45,2.55-5.39-4.42-8.08-7.93-4.78-4.15,3.91,2.46,7.07,5.52,9.23Z"/>
      <path class="cls-1" d="m41.99,38.66c-1.42.54-2.83,1.08-4.25,1.62.77,1.13,1.55,2.26,2.28,3.34-4.04.45-5.68-1.12-6.07-5.94,2.68.33,5.36.65,8.03.98Z"/>
      <path class="cls-2" d="m683.2,836.68c-5.68-24.52-5.73-49.92-12.66-74.28-6.5-22.88-15.87-45.51-27.55-66.21-25.15-44.55-66.14-72.51-102.07-107.23-16.7-16.13-31.75-33.89-40.82-55.4-10.28-24.37-17.94-49.86-26.62-74.82-8.18-23.51-16.2-47.16-25.49-70.26-9.43-23.43-21.74-45.29-33.15-67.77.17,15.18,3.51,29.74,6.37,44.66,2.64,13.82,3.15,31.51,8.75,44.31.67,3,1.33,6,2,9,3.67,13.67,7.33,27.33,11,41,.34,1,.67,2,1.01,3,1.67,5.33,3.34,10.67,5,16,.33,1,.67,2,1,3,1.33,3.33,2.65,6.67,3.98,10,.34,1.33.68,2.67,1.01,4,18.22,46.02,38.69,90,63.01,133,1.84,2.69,3.72,5.37,5.53,8.09,3.51,5.29,6.98,10.61,10.46,15.92-.13-2.52-.25-5.04-.38-7.55.13,2.52.25,5.04.38,7.55,28.7,52.79,51.92,105.21,65,163.99.67,3.67,1.34,7.33,2,11h0c-.33,13.33-.67,26.67-1,40,0,1.66,0,3.33,0,4.99h0c-4.15,21.67-4.38,43.26-10.66,64.75-5.67,19.38-13.89,37.92-24.63,55.03-22.29,35.52-51.45,65.66-82.72,93.23.01.38.03.76.04,1.14,9.23-3.06,18.83-5.32,27.62-9.35,19.08-8.75,37.74-18.4,56.57-27.68.59-.41,1.17-.83,1.76-1.24,13.53-5.9,26.89-18.47,38.42-27.69,12.68-10.15,22.6-22.27,33.49-34.19h0c6.69-10.05,13.38-20.1,20.07-30.15,1.33-2.61,2.65-5.22,3.98-7.83,10.16-25.87,15.64-51.29,19.23-78.89,0-9.41,0-18.81,0-28.22.03-1.63.06-3.26.1-4.89Zm-23.24,94h0c.31-.47.62-.93.91-1.37-.29.43-.6.9-.91,1.37Zm-8,28h0c.05-.34.11-.68.17-1.02-.06.34-.12.68-.17,1.02Z"/>
      <path class="cls-1" d="m42.37,61.48c-3.06-2.16-9.68-5.32-5.52-9.23,3.51-3.3,10.48-.61,7.93,4.78-.7,1.47-1.55,2.88-2.41,4.45Z"/>
      <g>
        <path class="cls-3" d="m336.11,874.63s0,0,0,0c-.37-.83-.78-1.53-1.22-2.11.45.58.85,1.29,1.22,2.11Z"/>
        <path class="cls-3" d="m325.15,875.65c.29-1.01.6-2.02.8-3.01.36-.25.72-.49,1.08-.74-.36.25-.72.49-1.08.74-.19.99-.51,2-.8,3.01Z"/>
        <path class="cls-3" d="m270.89,774.35l.07-.68c.47-1.45.82-2.91,1.06-4.39-.24,1.48-.59,2.94-1.06,4.39-.02.23-.05.45-.07.68Z"/>
        <path class="cls-3" d="m385.88,887.46h0c-.57,1.95-1.13,3.93-1.73,5.88.6-1.95,1.16-3.92,1.73-5.88Z"/>
        <path class="cls-3" d="m333.91,247.75l.07-.09s-.07.09-.07.09h0Z"/>
        <path class="cls-3" d="m454.83,873.3c-2.45-.83-4.85-1.79-7.21-2.88,2.36,1.08,4.77,2.04,7.21,2.88Z"/>
        <path class="cls-3" d="m403.13,800.67c.68-.1,1.36-.21,2.06-.32-.7.11-1.38.21-2.06.32h0Z"/>
        <path class="cls-3" d="m423.98,838.32c-1.78-2.14-3.45-4.39-5-6.72,1.56,2.33,3.23,4.57,5,6.72Z"/>
        <path class="cls-3" d="m421.72,851.75c.72.75,1.45,1.49,2.19,2.21-.74-.72-1.47-1.46-2.19-2.21h0Z"/>
        <path class="cls-3" d="m598.95,816.67c-13.08-58.78-36.3-111.2-65-163.99-3.48-5.31-6.95-10.63-10.46-15.92-1.8-2.72-3.68-5.39-5.53-8.09-24.32-43-44.79-86.98-63.01-133-.34-1.33-.68-2.67-1.01-4,0,0,0,0,0,0-1.33-3.33-2.65-6.67-3.98-10-.33-1-.67-2-1-3h0c-1.67-5.33-3.34-10.67-5-16h0l-1.01-3c-.21-.24-.41-.44-.61-.61.19.17.4.37.61.61-3.67-13.67-7.33-27.33-11-41-.67-3-1.33-6-2-9h0c-5.6-12.8-6.11-30.49-8.75-44.31-2.85-14.91-6.19-29.47-6.37-44.66-3.19-5.03-6.19-10.19-9.62-15.05-12.09-17.18-25.56-33.06-43.29-44.8-7.3-3.77-14.61-7.54-21.91-11.31-1.98-.66-3.97-1.33-5.95-1.99-6.65-1.67-13.29-3.34-19.93-5.01-8.75.02-17.51.04-26.26.05-2.25,0-4.5-.01-6.75-.02-1.61,3.42-3.28,1.42-4.94.05-2.27.68-4.5,1.48-6.81,2.01-13.46,3.09-26.93,6.11-40.4,9.15-.72.27-1.43.54-2.15.81-46.38,15.18-80.49,53.35-99.31,97.33-10.01,23.38-17.47,48.47-22.29,73.43-2.5,12.94-4.27,26.04-6.05,39.09-1.73,12.66-1.28,27.11-5.19,39.25,0,.34-.06.66-.19.97-1.11,13.32-2.26,26.64-3.45,39.95-.74,8.26,1.46,27.51-3.33,34.06-.07.66-.14,1.33-.22,1.99-1.9,30.87-14.21,59.07-29.26,85.7-14.88,26.32-28.8,51.38-40.58,79.29-9.55,32.26-15.86,64.16-16.1,97.89,0,.6,0,1.21,0,1.81-.48,3.48-.4,7.49,0,11.54,0,4.62,0,9.24.01,13.86-3.44,20.38,4.36,43.27,9.15,62.89,4.58,11.72,8.28,23.89,14,35.03,5.76,11.23,13.53,21.43,20.42,32.08,59.91,81.38,168.2,103.22,262.47,110.73,3.68.12,7.35.23,11.03.35,2.68,0,5.36,0,8.04.02,1.67,0,3.33-.01,5-.02,4.71-.34,9.42-.68,14.14-1.01-12.17-.05-24.34-.12-36.51-.13,12.17,0,24.34.07,36.51.13,47.01-2.88,91.83-10.13,136.89-24.02-.01-.38-.03-.76-.04-1.14,31.26-27.57,60.43-57.71,82.72-93.23,10.73-17.11,18.96-35.65,24.63-55.03,6.28-21.49,6.51-43.08,10.66-64.75,0-1.66,0-3.33,0-4.99.33-13.33.67-26.67,1-40-.67-3.67-1.34-7.33-2-11Zm-328-43l-.07.68c.02-.23.05-.45.07-.68.47-1.45.82-2.91,1.06-4.39-.24,1.48-.59,2.94-1.06,4.39Zm54.99,98.96c-.19.99-.51,2-.8,3.01.29-1.01.6-2.02.8-3.01.36-.25.72-.49,1.08-.74-.36.25-.72.49-1.08.74Zm7.96-624.89h0s.03-.04.07-.09l-.07.09Zm2.21,626.88c-.37-.83-.78-1.53-1.22-2.11.45.58.85,1.29,1.22,2.11,0,0,0,0,0,0Zm49.77,12.83c-.57,1.95-1.13,3.93-1.73,5.88.6-1.95,1.16-3.92,1.73-5.88h0Zm17.25-86.78h0c.68-.1,1.36-.21,2.06-.32-.7.11-1.38.21-2.06.32Zm18.59,51.07h0c.72.75,1.45,1.49,2.19,2.21-.74-.72-1.47-1.46-2.19-2.21Zm-2.74-20.14c1.56,2.33,3.23,4.57,5,6.72-1.78-2.14-3.45-4.39-5-6.72Zm28.64,38.82c2.36,1.08,4.77,2.04,7.21,2.88-2.45-.83-4.85-1.79-7.21-2.88Z"/>
      </g>
    </g>
  </g>
</svg>